<svg id="Layer_1" height="512" viewBox="0 0 128 128" width="512" xmlns="http://www.w3.org/2000/svg" data-name="Layer 1"><path d="m118 17.442h-19.5v-1.025h8.333a1.75 1.75 0 0 0 1.75-1.75v-4.667a1.75 1.75 0 0 0 -1.75-1.75h-20.166a1.75 1.75 0 0 0 -1.75 1.75v4.667a1.75 1.75 0 0 0 1.75 1.75h8.333v1.025h-22.444v-.636a8.556 8.556 0 1 0 -17.111 0v.636h-22.445v-1.025h8.333a1.75 1.75 0 0 0 1.75-1.75v-4.667a1.75 1.75 0 0 0 -1.75-1.75h-20.166a1.75 1.75 0 0 0 -1.75 1.75v4.667a1.75 1.75 0 0 0 1.75 1.75h8.333v1.025h-19.5a1.75 1.75 0 0 0 -1.75 1.75v67.208a1.75 1.75 0 0 0 1.75 1.75h45.444v29.85a1.75 1.75 0 0 0 3.5 0v-29.85h10.112v29.85a1.75 1.75 0 0 0 3.5 0v-29.85h45.444a1.75 1.75 0 0 0 1.75-1.75v-67.208a1.75 1.75 0 0 0 -1.75-1.75zm-29.583-5.692h16.667v1.167h-16.667zm-65.5 0h16.666v1.167h-16.666zm36.028 5.056a5.056 5.056 0 1 1 10.111 0v.636h-10.112zm57.305 67.844h-104.5v-63.708h104.5z"/><path d="m16.317 27.375v50.843a1.75 1.75 0 0 0 1.75 1.75h91.865a1.75 1.75 0 0 0 1.75-1.75v-50.843a1.75 1.75 0 0 0 -1.75-1.75h-91.865a1.75 1.75 0 0 0 -1.75 1.75zm3.5 1.75h88.365v47.343h-88.365z"/><path d="m30.576 60.65h18.333a1.75 1.75 0 0 0 1.75-1.75v-24a1.75 1.75 0 0 0 -1.75-1.75h-18.333a1.75 1.75 0 0 0 -1.75 1.75v24a1.75 1.75 0 0 0 1.75 1.75zm1.75-24h14.833v20.5h-14.833z"/><path d="m97.424 33.15h-18.333a1.75 1.75 0 0 0 -1.75 1.75v24a1.75 1.75 0 0 0 1.75 1.75h18.333a1.75 1.75 0 0 0 1.75-1.75v-24a1.75 1.75 0 0 0 -1.75-1.75zm-1.75 24h-14.833v-20.5h14.833z"/><path d="m61.367 51.303 3.19-8.59h-2.694l-1.909 6.182-1.933-6.182h-2.775l3.244 8.59z"/><path d="m68.992 49.762a1.4 1.4 0 0 1 -1.172-.521 1.927 1.927 0 0 1 -.334-.937l-2.525.158a3.328 3.328 0 0 0 .955 2.145 4.26 4.26 0 0 0 3.035.844 5.161 5.161 0 0 0 2.068-.36 2.86 2.86 0 0 0 1.281-1.059 2.723 2.723 0 0 0 .457-1.523 2.414 2.414 0 0 0 -.343-1.271 2.621 2.621 0 0 0 -1.1-.952 11.142 11.142 0 0 0 -2.493-.759 2.175 2.175 0 0 1 -.891-.316.478.478 0 0 1 -.193-.369.6.6 0 0 1 .234-.478 1.064 1.064 0 0 1 .7-.2 1.169 1.169 0 0 1 1.3 1.107l2.5-.146a2.644 2.644 0 0 0 -1.028-1.948 4.32 4.32 0 0 0 -2.511-.612 5.389 5.389 0 0 0 -2.112.337 2.546 2.546 0 0 0 -1.154.926 2.252 2.252 0 0 0 -.384 1.251 2.1 2.1 0 0 0 .75 1.658 5.778 5.778 0 0 0 2.49 1.043 3.393 3.393 0 0 1 1.359.5.788.788 0 0 1 .293.6.8.8 0 0 1 -.308.618 1.3 1.3 0 0 1 -.874.264z"/><path d="m30.576 66.9h38.281a1.75 1.75 0 0 0 0-3.5h-38.281a1.75 1.75 0 0 0 0 3.5z"/><path d="m88.257 69.65h-57.681a1.75 1.75 0 1 0 0 3.5h57.681a1.75 1.75 0 0 0 0-3.5z"/></svg>