<?xml version="1.0" encoding="utf-8"?>
<!-- Generator: Adobe Illustrator 16.0.0, SVG Export Plug-In . SVG Version: 6.00 Build 0)  -->
<!DOCTYPE svg PUBLIC "-//W3C//DTD SVG 1.1//EN" "http://www.w3.org/Graphics/SVG/1.1/DTD/svg11.dtd">
<svg version="1.1" id="Layer_1" xmlns="http://www.w3.org/2000/svg" xmlns:xlink="http://www.w3.org/1999/xlink" x="0px" y="0px"
	 width="1024px" height="1024px" viewBox="0 0 1024 1024" enable-background="new 0 0 1024 1024" xml:space="preserve">
<g>
	<g>
		<g>
			<path d="M448.952,303.719h126.097c41.822,0,62.721,0,85.237,7.103c24.58,8.956,43.934,28.31,52.879,52.885
				c7.113,22.512,7.113,43.42,7.113,85.237v126.103c0,41.817,0,62.731-7.113,85.232c-8.945,24.586-28.299,43.938-52.879,52.885
				c-22.517,7.118-43.415,7.118-85.237,7.118H448.952c-41.82,0-62.729,0-85.238-7.118c-24.578-8.946-43.934-28.299-52.882-52.885
				c-7.11-22.501-7.11-43.415-7.11-85.232V448.943c0-41.817,0-62.726,7.11-85.237c8.948-24.575,28.304-43.929,52.882-52.885
				C386.223,303.719,407.131,303.719,448.952,303.719L448.952,303.719"/>
		</g>
	</g>
	<g>
		<g>
			<path fill="#FFFFFF" d="M512,440.09c-56.889,0.363-106.804,30.087-135.333,74.765C405.22,559.553,455.111,589.256,512,589.62
				c56.889-0.364,106.78-30.067,135.333-74.766C618.804,470.177,568.889,440.453,512,440.09z M512,570.01
				c-27.645-0.563-49.889-23.104-49.889-50.879S484.355,468.823,512,468.26c27.645,0.563,49.889,23.096,49.889,50.871
				S539.645,569.446,512,570.01z"/>
			<g>
				<path fill="#FFFFFF" d="M478.343,519.137c0,9.501,3.955,18.069,10.292,24.188c-0.901-5.961,0.146-12.906,1.184-19.726
					c0.618-4.033,1.215-8.003,1.44-11.722c-4.269,1.445-8.548,3.258-12.832,5.542C478.395,517.994,478.343,518.55,478.343,519.137z"
					/>
				<path fill="#FFFFFF" d="M478.809,513.772c4.185-2.126,8.375-3.865,12.549-5.216c-0.063-4.866-1.074-9.14-3.944-12.356
					C482.952,500.972,479.893,507.032,478.809,513.772z"/>
				<path fill="#FFFFFF" d="M536.58,496.2c-2.766,3.102-3.797,7.176-3.923,11.822c4.2,1.314,8.354,3.017,12.439,5.195
					C543.939,506.702,540.917,500.841,536.58,496.2z"/>
				<path fill="#FFFFFF" d="M534.359,494.027c-5.594-4.981-12.832-8.108-20.814-8.47v19.427c5.421,0.036,10.795,0.733,16.101,2.121
					C529.892,502.114,531.159,497.558,534.359,494.027z"/>
				<path fill="#FFFFFF" d="M494.38,507.64c5.39-1.509,10.748-2.367,16.069-2.582v-19.5c-7.982,0.361-15.221,3.488-20.809,8.47
					C492.945,497.683,494.197,502.444,494.38,507.64z"/>
				<path fill="#FFFFFF" d="M492.883,524.07c-1.294,8.49-2.525,16.624-0.257,22.563c5.091,3.588,11.198,5.772,17.824,6.076v-44.515
					c-5.316,0.225-10.669,1.1-16.064,2.671C494.239,515.197,493.542,519.723,492.883,524.07z"/>
				<path fill="#FFFFFF" d="M529.594,510.343c-5.27-1.446-10.628-2.185-16.049-2.221v44.588c6.621-0.304,12.732-2.488,17.813-6.076
					c2.284-5.939,1.048-14.073-0.251-22.563C530.421,519.545,529.709,514.842,529.594,510.343z"/>
				<path fill="#FFFFFF" d="M532.705,511.296c0.188,3.892,0.816,8.061,1.461,12.303c1.047,6.819,2.09,13.77,1.193,19.73
					c6.338-6.117,10.298-14.691,10.298-24.192c0-0.702-0.068-1.389-0.11-2.085C541.331,514.653,537.047,512.73,532.705,511.296z"/>
			</g>
		</g>
		<g>
			<g>
				<g>
					<path d="M466.359,452.228c0.047,1.928-1.472,3.515-3.402,3.567c-1.912,0.044-3.509-1.475-3.554-3.397
						c-0.047-1.919,1.475-3.517,3.394-3.563C464.714,448.789,466.314,450.306,466.359,452.228z"/>
				</g>
				<g>
					<path fill="#FFFFFF" d="M462.926,454.333c-0.134,0.003-0.278-0.011-0.424-0.039c-1.087-0.21-1.802-1.265-1.592-2.352
						c2.147-11.316,8.985-12.55,11.028-12.654c3.721-0.181,7.134,1.959,8.098,5.136c0.322,1.063-0.28,2.182-1.346,2.509
						c-1.079,0.324-2.182-0.28-2.506-1.344c-0.427-1.401-2.134-2.396-4.033-2.281c-3.478,0.187-6.209,3.685-7.296,9.386
						C464.678,453.642,463.858,454.31,462.926,454.333z"/>
				</g>
			</g>
			<g>
				<g>
					<path d="M481.085,448.224c0.049,1.925-1.472,3.515-3.402,3.564c-1.909,0.047-3.509-1.475-3.551-3.397
						c-0.05-1.919,1.474-3.514,3.394-3.559C479.443,444.787,481.043,446.301,481.085,448.224z"/>
				</g>
				<g>
					<path fill="#FFFFFF" d="M477.651,450.326c-0.134,0.006-0.277-0.011-0.424-0.036c-1.084-0.213-1.799-1.266-1.592-2.354
						c2.15-11.316,8.988-12.547,11.028-12.651c3.724-0.184,7.133,1.959,8.097,5.135c0.325,1.063-0.278,2.182-1.343,2.509
						c-1.079,0.328-2.182-0.279-2.506-1.343c-0.43-1.404-2.134-2.396-4.033-2.284c-3.478,0.187-6.212,3.69-7.296,9.389
						C479.403,449.635,478.584,450.303,477.651,450.326z"/>
				</g>
			</g>
			<g>
				<g>
					<path d="M495.63,447.23c-0.029,1.926-1.613,3.449-3.543,3.421c-1.915-0.031-3.449-1.619-3.413-3.538
						c0.032-1.92,1.621-3.452,3.541-3.42C494.132,443.729,495.669,445.312,495.63,447.23z"/>
				</g>
				<g>
					<path fill="#FFFFFF" d="M492.115,449.189c-0.134-0.002-0.277-0.021-0.427-0.058c-1.071-0.254-1.742-1.335-1.49-2.414
						c2.613-11.217,9.499-12.165,11.541-12.183c3.727-0.032,7.047,2.249,7.88,5.463c0.275,1.076-0.372,2.168-1.451,2.453
						c-1.092,0.283-2.166-0.371-2.446-1.448c-0.372-1.419-2.032-2.482-3.934-2.445c-3.485,0.039-6.361,3.428-7.681,9.076
						C493.894,448.571,493.047,449.205,492.115,449.189z"/>
				</g>
			</g>
			<g>
				<g>
					<path d="M509.908,446.139c-0.309,1.898-2.101,3.174-4.004,2.87c-1.886-0.312-3.177-2.105-2.862-3.999
						c0.312-1.893,2.103-3.179,3.999-2.867C508.934,442.451,510.225,444.243,509.908,446.139z"/>
				</g>
				<g>
					<path fill="#FFFFFF" d="M506.145,447.563c-0.131-0.021-0.272-0.061-0.411-0.118c-1.027-0.405-1.532-1.571-1.126-2.601
						c4.214-10.724,11.165-10.663,13.188-10.386c3.688,0.511,6.643,3.25,6.998,6.55c0.121,1.107-0.678,2.092-1.789,2.218
						c-1.123,0.121-2.09-0.681-2.207-1.786c-0.165-1.458-1.655-2.755-3.538-2.993c-3.452-0.466-6.793,2.47-8.915,7.87
						C507.993,447.213,507.063,447.716,506.145,447.563z"/>
				</g>
			</g>
			<g>
				<g>
					<path d="M524.555,446.607c-0.519,1.857-2.443,2.92-4.303,2.404c-1.833-0.529-2.912-2.451-2.381-4.295
						c0.52-1.852,2.441-2.928,4.287-2.404C524,442.842,525.081,444.759,524.555,446.607z"/>
				</g>
				<g>
					<path fill="#FFFFFF" d="M520.658,447.605c-0.129-0.037-0.26-0.1-0.396-0.165c-0.978-0.521-1.347-1.736-0.825-2.716
						c5.397-10.177,12.293-9.336,14.272-8.833c3.611,0.932,6.238,3.978,6.22,7.299c-0.002,1.11-0.911,2-2.021,2.003
						c-1.134-0.008-2.009-0.919-2.001-2.027c0.003-1.464-1.33-2.917-3.177-3.373c-3.381-0.851-7.023,1.692-9.75,6.81
						C522.535,447.459,521.557,447.856,520.658,447.605z"/>
				</g>
			</g>
			<g>
				<g>
					<path d="M539.396,448.482c-0.521,1.854-2.446,2.923-4.306,2.399c-1.838-0.521-2.917-2.443-2.388-4.293
						c0.516-1.843,2.448-2.92,4.298-2.401C538.84,444.714,539.925,446.634,539.396,448.482z"/>
				</g>
				<g>
					<path fill="#FFFFFF" d="M535.494,449.478c-0.129-0.036-0.266-0.092-0.394-0.162c-0.977-0.519-1.349-1.739-0.825-2.718
						c5.395-10.178,12.291-9.331,14.273-8.826c3.605,0.919,6.234,3.976,6.217,7.296c-0.008,1.11-0.908,1.999-2.027,1.999
						c-1.123-0.006-1.998-0.912-1.995-2.022c0.005-1.469-1.333-2.917-3.18-3.37c-3.381-0.849-7.023,1.684-9.741,6.809
						C537.371,449.339,536.392,449.731,535.494,449.478z"/>
				</g>
			</g>
			<g>
				<g>
					<path d="M553.33,451.83c-0.804,1.746-2.878,2.498-4.627,1.688c-1.736-0.801-2.496-2.878-1.679-4.617
						c0.799-1.744,2.876-2.509,4.616-1.691C553.377,448.021,554.14,450.086,553.33,451.83z"/>
				</g>
				<g>
					<path fill="#FFFFFF" d="M549.318,452.193c-0.121-0.052-0.244-0.125-0.364-0.217c-0.874-0.679-1.053-1.933-0.382-2.823
						c6.939-9.188,13.615-7.262,15.492-6.45c3.421,1.477,5.529,4.913,4.981,8.187c-0.178,1.092-1.215,1.828-2.315,1.655
						c-1.115-0.187-1.832-1.218-1.652-2.318c0.236-1.442-0.848-3.093-2.6-3.839c-3.206-1.364-7.21,0.565-10.709,5.201
						C551.201,452.354,550.17,452.587,549.318,452.193z"/>
				</g>
			</g>
		</g>
	</g>
</g>
</svg>
